<?xml version="1.0" encoding="UTF-8" standalone="no"?>
<!-- Generator: Adobe Illustrator 19.0.0, SVG Export Plug-In . SVG Version: 6.00 Build 0)  -->

<svg
   xmlns:dc="http://purl.org/dc/elements/1.1/"
   xmlns:cc="http://creativecommons.org/ns#"
   xmlns:rdf="http://www.w3.org/1999/02/22-rdf-syntax-ns#"
   xmlns:svg="http://www.w3.org/2000/svg"
   xmlns="http://www.w3.org/2000/svg"
   xmlns:sodipodi="http://sodipodi.sourceforge.net/DTD/sodipodi-0.dtd"
   xmlns:inkscape="http://www.inkscape.org/namespaces/inkscape"
   version="1.1"
   id="Capa_1"
   x="0px"
   y="0px"
   viewBox="0 0 511.819 511.819"
   style="enable-background:new 0 0 511.819 511.819;"
   xml:space="preserve"
   inkscape:version="0.91 r13725"
   sodipodi:docname="car2.svg"><metadata
     id="metadata83"><rdf:RDF><cc:Work
         rdf:about=""><dc:format>image/svg+xml</dc:format><dc:type
           rdf:resource="http://purl.org/dc/dcmitype/StillImage" /></cc:Work></rdf:RDF></metadata><defs
     id="defs81" /><sodipodi:namedview
     pagecolor="#ffffff"
     bordercolor="#666666"
     borderopacity="1"
     objecttolerance="10"
     gridtolerance="10"
     guidetolerance="10"
     inkscape:pageopacity="0"
     inkscape:pageshadow="2"
     inkscape:window-width="1855"
     inkscape:window-height="1056"
     id="namedview79"
     showgrid="false"
     inkscape:zoom="0.46110051"
     inkscape:cx="255.9095"
     inkscape:cy="255.9095"
     inkscape:window-x="65"
     inkscape:window-y="24"
     inkscape:window-maximized="1"
     inkscape:current-layer="Capa_1" /><path
     style="fill:#e14b4b"
     d="m 3.3333333e-4,272.06 0,26.48 c 0,0 8.44799996667,14.88 14.03199966667,17.2 l 101.279997,0 7.44,-2.32 3.264,7.44 252.752,0 0.672,-0.24 11.408,-3.952 85.952,11.152 c 0,0 2.72,-0.128 6.624,-0.64 10.944,-1.424 31.152,-5.856 26.368,-18.88 0,0 4.56,-24.688 0,-39.024 0,0 -1.392,-19.984 -18.576,-26.96 -17.2,-6.96 -67.84,-20.448 -95.712,-24.608 0,0 -24.624,-7.44 -35.312,-17.2 0,0 -24.112,-18.016 -53.888,-31.072 -16.048,-7.024 -33.216,-11.168 -50.656,-12.8 -33.744,-3.168 -107.088,-8.048 -153.776,3.44 -39.663997,9.776 -65.951997,32.176 -79.791997,47.152 -7.6,8.224 -11.744,18.96 -11.744,30.16 l 0,10.048 -3.2479997,11.616 c -0.016,0 -7.08799996667,5.104 -7.08799996667,13.008 z"
     id="path3"
     inkscape:connector-curvature="0" /><path
     style="fill:#2e3235"
     d="m 379.23233,315.9 c 0,1.584 0.064,3.168 0.208,4.72 l 11.408,-3.952 85.952,11.152 c 0,0 2.72,-0.128 6.624,-0.64 0.8,-3.632 1.216,-7.408 1.216,-11.28 0,-29.104 -23.6,-52.704 -52.704,-52.704 -29.104,0 -52.704,23.6 -52.704,52.704 z"
     id="path5"
     inkscape:connector-curvature="0" /><circle
     style="fill:#3e4347"
     cx="-431.93634"
     cy="315.89999"
     r="43.071999"
     id="circle7"
     transform="scale(-1,1)" /><path
     style="fill:#2e3235"
     d="m 123.76033,315.708 -1.008,-2.304 -7.44,2.32 -96.943997,0 c 0.096,-29.024 23.648,-52.528 52.688,-52.528 29.055997,0 52.607997,23.504 52.703997,52.512 z"
     id="path9"
     inkscape:connector-curvature="0" /><g
     id="g11"
     transform="matrix(-1,0,0,1,511.81933,0)"><circle
       style="fill:#3e4347"
       cx="440.74701"
       cy="315.89999"
       r="43.071999"
       id="circle13" /><path
       style="fill:#3e4347"
       d="m 287.499,166.652 c -8.944,0.304 -14.608,0.608 -14.72,0.624 l -0.32,0.016 -0.32,0 c -0.896,-0.032 -1.792,-0.032 -2.688,-0.032 -39.056,0 -77.968,23.2 -97.696,37.024 -8.912,6.24 -15.92,15.024 -19.984,24.944 l 124.464,-9.936 11.264,-52.64 z"
       id="path15"
       inkscape:connector-curvature="0" /><path
       style="fill:#3e4347"
       d="m 403.771,174.444 c -12.368,-5.408 -41.824,-8.384 -83.072,-8.384 -4.832,0 -9.52,0.048 -13.936,0.112 l -4.48,51.024 0,0 123.344,-9.84 c 0.4,-2.304 0.736,-4.496 0.976,-6.496 l 0.016,-0.16 0.032,-0.16 c 1.296,-7.552 -12.752,-19.92 -22.88,-26.096 z"
       id="path17"
       inkscape:connector-curvature="0" /></g><g
     id="g19"
     transform="matrix(-1,0,0,1,511.81933,0)"><path
       style="fill:#ffd83b"
       d="m 11.019,261.468 c 0,0 17.136,-19.952 36.336,-18.448 4.672,0.368 18.64,6.624 -3.2,18.448 -6.832,3.696 -20.272,5.872 -30.496,6.032 -8.288,0.112 -2.64,-6.032 -2.64,-6.032 z"
       id="path21"
       inkscape:connector-curvature="0" /><path
       style="fill:#ffd83b"
       d="m 501.499,247.436 0,-10.048 c 0,-4.336 -0.8,-8.544 -2,-12.624 -6.912,-0.864 -15.568,-1.296 -18.384,1.52 -3.744,3.744 -3.744,17.44 0,21.184 3.136,3.136 13.6,2.256 20.72,1.216 l -0.336,-1.248 z"
       id="path23"
       inkscape:connector-curvature="0" /></g><circle
     style="fill:#cbd6e0"
     cx="-431.93634"
     cy="315.89999"
     r="28.752001"
     id="circle25"
     transform="scale(-1,1)" /><circle
     style="fill:#939799"
     cx="-431.93634"
     cy="315.89999"
     r="23.455999"
     id="circle27"
     transform="scale(-1,1)" /><g
     id="g29"
     transform="matrix(-1,0,0,1,511.81933,0)"><circle
       style="fill:#cbd6e0"
       cx="79.883003"
       cy="315.89999"
       r="16.879999"
       id="circle31" /><circle
       style="fill:#cbd6e0"
       cx="440.74701"
       cy="315.89999"
       r="28.752001"
       id="circle33" /></g><circle
     style="fill:#939799"
     cx="-71.072327"
     cy="315.89999"
     r="23.455999"
     id="circle35"
     transform="scale(-1,1)" /><circle
     style="fill:#cbd6e0"
     cx="-71.072327"
     cy="315.89999"
     r="16.879999"
     id="circle37"
     transform="scale(-1,1)" /><g
     id="g39"
     transform="matrix(-1,0,0,1,511.81933,0)"><path
       style="fill:#5a5f63"
       d="m 180.875,226.892 26.192,-2.096 32.944,-53.568 c -11.456,2.944 -22.32,7.28 -32.32,12.064 l -26.816,43.6 z"
       id="path41"
       inkscape:connector-curvature="0" /><path
       style="fill:#5a5f63"
       d="m 216.299,224.06 13.664,-1.088 34.032,-55.344 c -4.688,0.256 -9.344,0.768 -13.968,1.584 l -33.728,54.848 z"
       id="path43"
       inkscape:connector-curvature="0" /><path
       style="fill:#5a5f63"
       d="m 309.403,216.636 26.192,-2.096 28.912,-47.024 c -7.296,-0.544 -15.392,-0.944 -24.192,-1.168 l -30.912,50.288 z"
       id="path45"
       inkscape:connector-curvature="0" /><path
       style="fill:#5a5f63"
       d="m 344.811,213.804 13.664,-1.088 26.416,-42.96 c -3.68,-0.576 -7.632,-1.104 -12.048,-1.536 l -28.032,45.584 z"
       id="path47"
       inkscape:connector-curvature="0" /></g><g
     id="g49"
     transform="matrix(-1,0,0,1,511.81933,0)" /><g
     id="g51"
     transform="matrix(-1,0,0,1,511.81933,0)" /><g
     id="g53"
     transform="matrix(-1,0,0,1,511.81933,0)" /><g
     id="g55"
     transform="matrix(-1,0,0,1,511.81933,0)" /><g
     id="g57"
     transform="matrix(-1,0,0,1,511.81933,0)" /><g
     id="g59"
     transform="matrix(-1,0,0,1,511.81933,0)" /><g
     id="g61"
     transform="matrix(-1,0,0,1,511.81933,0)" /><g
     id="g63"
     transform="matrix(-1,0,0,1,511.81933,0)" /><g
     id="g65"
     transform="matrix(-1,0,0,1,511.81933,0)" /><g
     id="g67"
     transform="matrix(-1,0,0,1,511.81933,0)" /><g
     id="g69"
     transform="matrix(-1,0,0,1,511.81933,0)" /><g
     id="g71"
     transform="matrix(-1,0,0,1,511.81933,0)" /><g
     id="g73"
     transform="matrix(-1,0,0,1,511.81933,0)" /><g
     id="g75"
     transform="matrix(-1,0,0,1,511.81933,0)" /><g
     id="g77"
     transform="matrix(-1,0,0,1,511.81933,0)" /></svg>